<?xml version="1.0" encoding="utf-8"?>
<!-- Generator: Adobe Illustrator 16.0.4, SVG Export Plug-In . SVG Version: 6.00 Build 0)  -->
<!DOCTYPE svg PUBLIC "-//W3C//DTD SVG 1.1//EN" "http://www.w3.org/Graphics/SVG/1.1/DTD/svg11.dtd">
<svg version="1.1" id="Layer_1" xmlns="http://www.w3.org/2000/svg" xmlns:xlink="http://www.w3.org/1999/xlink" x="0px" y="0px"
	 width="792px" height="612px" viewBox="0 0 792 612" enable-background="new 0 0 792 612" xml:space="preserve">
<g>
	<path fill-rule="evenodd" clip-rule="evenodd" fill="#E5675E" d="M260.401,455.369c-5.689,1.288-11.305,3.061-17.079,3.794
		c-45.087,5.728-68.552,35.997-60.696,77.896c1.566,8.356,6.269,16.748,1.738,25.532c-7.941,0.466-9.574-5.129-11.413-10.261
		c-4.262-11.902-5.441-24.39-8.127-36.583c-7.331-33.283-4.674-61.875,41.583-74.684c-25.668-2.978-48.737,13.183-57.388,36.265
		c-5.958,15.896-3.806,31.962-0.768,48.125c0.974,5.173,5.117,13.621-2.357,15.338c-7.084,1.626-8.672-7.187-10.358-12.479
		c-6.018-18.873-6.613-38.566-9.888-57.849c-2.93-17.244,3.752-28.797,18.34-38.439c11.229-7.423,24.163-12.116,38.894-20.562
		c-11.642,1.331-19.542-2.685-27.656,0.368c-25.626,9.648-42.969,25.51-47.666,51.661c-1.939,10.796-1.582,21.57-2.15,32.361
		c-0.171,3.267,0.06,7.455-4.675,7.75c-4.396,0.272-5.772-3.562-6.377-6.88c-1.046-5.729-2.008-11.499-2.42-17.287
		c-1.158-16.281,2.167-32.414,2.379-48.624c0.231-17.75,9.796-28.74,26.696-35.527c13.1-5.263,26.845-8.795,44.722-13.064
		c-14.046-3.811-23.425-6.673-34.807-3.605c-29.099,7.838-45.852,25.492-52.62,51.972c-1.86,7.275-3.248,14.655-5.103,21.933
		c-2.122,8.324-6.219,8.141-11.406,1.94c0-9.167,0-18.331,0-27.498c8.253-12.186,9.453-26.536,12.5-39.905
		c4.675-20.508,18.401-29.177,38.67-32.854c26.372-4.782,52.94-5.593,79.668-3.635c1.354,17.43,6.049,33.788,14.744,49.619
		C219.92,423.016,240.083,439.129,260.401,455.369z"/>
	<path fill-rule="evenodd" clip-rule="evenodd" fill="#E5675E" d="M587.326,262.117c13.474-4.612,26.825-9.55,40.447-13.754
		c17.324-5.347,32.014-2.803,45.422,10.314c17.57,17.186,35.682,33.83,50.342,53.294c0,1.667,0,3.332,0,4.999
		c-5.45,4.426-9.667,2.189-13.682-2.009c-5.93-6.205-11.732-12.536-18.023-18.421c-21.002-19.637-46.245-23.882-74.486-16.82
		c-8.809,2.202-14.226,8.159-19.431,14.406c-1.397,0.615-2.794,1.23-4.19,1.848c1.944,1.816,3.851,0.864,5.756-0.071
		c16.791-3.33,33.309-7.953,50.867-7.148c11.183,0.516,19.947,3.946,26.543,12.638c12.443,16.397,25.397,32.487,35.285,50.362
		c2.632,4.759,4.292,10.013,5.925,15.167c0.75,2.363,0.408,5.181-2.618,6.435c-3.181,1.319-5.301-0.839-6.733-2.807
		c-4.272-5.878-8.184-11.977-12.252-17.979c-11.726-17.301-27.073-29.778-49.793-33.742c-18.485-3.223-34.954-1.157-49.967,12.684
		c16.163,0.174,31.093-2.372,46.107-0.078c14.575,2.227,25.262,7.677,31.29,20.665c9.4,20.252,20.863,39.75,25.649,61.605
		c1.045,4.771,3.642,11.193-3.436,12.617c-5.874,1.181-6.667-5.552-8.537-9.587c-3.545-7.647-6.597-15.512-10.543-22.977
		c-12.504-23.655-34.152-34.387-61.902-36.825c-8.922-0.784-15.314,4.271-23.748,6.024c4.753,6.64,11.717,4.288,16.979,3.758
		c25.315-2.555,41.386,6.542,50.127,28.843c5.96,15.205,14.494,29.572,19.174,45.279c1.188,3.986,2.155,8.092,2.521,12.195
		c0.274,3.103,1.239,7.321-3.374,8.488c-4.691,1.188-6.126-2.866-7.483-5.77c-3.746-8.018-6.789-16.323-10.707-24.267
		c-10.482-21.261-28.181-34.01-53.443-38.135c-9.684-1.579-18.538-1.735-27.577,2.756c-6.276,3.119-13.52,4.598-20.329,6.808
		c2.806-4.202,5.686-8.361,8.406-12.607c26.082-40.697,36.887-82.217,7.896-125.833c2.833-0.039,5.667-0.081,8.498-0.122
		c2.07-0.195,4.842,0.869,5.184-2.429L587.326,262.117z"/>
	<path fill-rule="evenodd" clip-rule="evenodd" fill="#E5675E" d="M573.806,264.472c28.991,43.617,18.187,85.136-7.896,125.833
		c-2.721,4.246-5.601,8.405-8.406,12.607c-28.777,32.052-63.251,57.055-105.871,71.902c-61.598,21.46-120.813,15.694-177.979-13.254
		c-4.337-2.196-8.832-4.133-13.252-6.19c-20.318-16.242-40.481-32.355-53.019-55.186c-8.695-15.831-13.39-32.189-14.744-49.619
		c1.547-5.1,3.119-10.2,1.898-15.588c8.623-18.191,21.914-33.012,38.765-45.265c21.633-9.958,42.515-21.807,65.097-29.384
		c26.498-8.888,54.371-14.442,81.838-20.743c24.942-5.722,50.295-9.574,76.045-10.77c2.106-0.083,4.212-0.166,6.316-0.25
		c20.272,0.281,40.546,0.569,60.363,5.251C542.342,240.636,561.335,248,573.806,264.472z"/>
	<path fill-rule="evenodd" clip-rule="evenodd" fill="#E5675E" d="M233.302,289.714c-16.852,12.252-30.143,27.073-38.765,45.265
		c-16.327-7.795-35.766-16.9-38.724-32.873c-4.208-22.706-30.279-34.665-29.105-58.579c0.108-2.205-4.604-4.744-7.285-6.913
		c-41.346-33.461-39.616-74.979-15.158-115.237c3.812-6.273,7.772-3.878,12.254-1.843c23.393,10.625,37.02,28.679,45.522,50.599
		c0.907,2.336,1.54,4.765,2.476,7.092c0.283,0.704,1.165,1.201,2.274,2.283c5.437-7.756,10.777-15.375,17.21-24.554
		c10.626,17.618,10.114,34.108,3.221,50.909c-4.065,9.907-10.667,18.409-19.229,25.405c-4.868,3.977-6.941,7.245-1.425,12.101
		c2.223,1.956,4.472,4.646,5.042,7.304c4.024,18.741,17.686,26.146,36.895,29.194C217.13,281.236,225.058,286.319,233.302,289.714z"
		/>
	<path fill-rule="evenodd" clip-rule="evenodd" fill="#E5675E" d="M573.806,264.472c-12.471-16.473-31.464-23.836-50.843-30.654
		c12.94-9.257,27.127-16.588,42.64-21.318c6.091-1.856,9.085-4.475,9.512-10.219c0.813-10.983,11.886-20.955,10.227-29.873
		c-1.542-8.285-16.329-12.99-22.919-21.632c-13.161-17.264-16.902-35.678-9.515-57.978c8.084,8.615,14.708,15.675,22.67,24.16
		c3.796-29.621,16.491-52.917,41.946-69.407c5.277-2.09,8.122,0.546,11.264,4.127c32.702,37.258,32.553,79.674-0.903,115.979
		c-3.426,3.716-5.976,7.023-5.05,12.113c0.438,2.409,0.933,5.676-0.397,7.363c-16.827,21.348-13.085,50.979-33.876,70.661
		c-1.265,1.198-2.341,2.517-1.234,4.323c0,0,0.161-0.195,0.161-0.198c-3.011-1.489-4.31,0.091-5.184,2.432
		C579.473,264.392,576.639,264.433,573.806,264.472z"/>
	<path fill-rule="evenodd" clip-rule="evenodd" fill="#464648" d="M262.166,185.056c7.68,1.264,16.645,3.103,15.562,14.256
		c-0.9,9.267-6.777,14.872-16.722,14.479c-9.692-0.383-16.169-6.037-16.246-15.307C244.682,189.132,251.324,185.001,262.166,185.056
		z"/>
	<path fill-rule="evenodd" clip-rule="evenodd" fill="#454547" d="M459.244,169.954c-5.883-1.653-10.895-4.541-12.755-10.128
		c-2.711-8.149-0.028-14.828,8.418-18.763c7.965-3.71,15.153-1.829,20.307,4.58c5.586,6.948,4.728,13.919-1.971,20.111
		c-2.992,2.768-6.824,3.881-10.915,4.406C461.3,170.091,460.272,170.022,459.244,169.954z"/>
	<path fill-rule="evenodd" clip-rule="evenodd" fill="#E5675E" d="M459.244,169.954c1.028,0.068,2.056,0.137,3.084,0.205
		c0.089,19.471,0.18,38.939,0.271,58.408c-2.104,0.083-4.209,0.167-6.315,0.25C462.594,209.421,457.899,189.56,459.244,169.954z"/>
	<path fill-rule="evenodd" clip-rule="evenodd" fill="#F5F4F4" d="M582.304,264.35c0.874-2.341,2.173-3.92,5.184-2.432
		C587.146,265.219,584.374,264.155,582.304,264.35z"/>
	<path fill-rule="evenodd" clip-rule="evenodd" fill="#F5F4F4" d="M599.48,295.902c-1.905,0.935-3.812,1.887-5.756,0.071
		c1.396-0.618,2.793-1.233,4.19-1.848C598.498,294.672,599.02,295.263,599.48,295.902z"/>
	<path fill-rule="evenodd" clip-rule="evenodd" fill="#E5675E" d="M267.041,213.057c1.002-0.239,2.004-0.477,3.007-0.716
		c6.027,19.051,12.056,38.099,18.084,57.146c-1.983,0.708-3.967,1.416-5.954,2.123C282.285,250.73,271.741,232.667,267.041,213.057z
		"/>
</g>
</svg>
