<?xml version="1.0" encoding="utf-8"?>
<!-- Generator: Adobe Illustrator 16.0.4, SVG Export Plug-In . SVG Version: 6.00 Build 0)  -->
<!DOCTYPE svg PUBLIC "-//W3C//DTD SVG 1.1//EN" "http://www.w3.org/Graphics/SVG/1.1/DTD/svg11.dtd">
<svg version="1.1" id="Layer_1" xmlns="http://www.w3.org/2000/svg" xmlns:xlink="http://www.w3.org/1999/xlink" x="0px" y="0px"
	 width="792px" height="612px" viewBox="0 0 792 612" enable-background="new 0 0 792 612" xml:space="preserve">
<g>
	<path fill-rule="evenodd" clip-rule="evenodd" fill="#E5675E" d="M253.031,422.28c-5.81,0.522-11.611,1.534-17.431,1.496
		c-45.448-0.302-72.719,26.589-70.488,69.16c0.444,8.49,3.993,17.432-1.663,25.538c-7.932-0.593-8.81-6.353-9.951-11.684
		c-2.646-12.362-2.159-24.896-3.205-37.338c-2.854-33.961,3.571-61.949,51.118-68.511c-25.047-6.354-50.055,6.604-61.689,28.336
		c-8.013,14.964-8.01,31.174-7.141,47.598c0.279,5.255,3.265,14.18-4.37,14.89c-7.237,0.673-7.643-8.272-8.611-13.742
		c-3.462-19.503-1.442-39.103-2.131-58.648c-0.617-17.481,7.537-28.047,23.275-35.669c12.114-5.868,25.555-8.805,41.277-15.224
		c-11.716-0.225-19.014-5.253-27.46-3.302c-26.68,6.165-45.972,19.586-54.094,44.885c-3.354,10.443-4.428,21.171-6.423,31.791
		c-0.603,3.214-0.928,7.396-5.661,7.062c-4.393-0.313-5.249-4.297-5.409-7.666c-0.277-5.815-0.465-11.664-0.106-17.453
		c1.011-16.291,6.445-31.842,8.805-47.881c2.583-17.562,13.52-27.187,31.17-31.673c13.682-3.48,27.774-5.16,46.06-7.021
		c-13.417-5.639-22.333-9.72-34.021-8.188c-29.882,3.91-48.828,19.188-59.046,44.536c-2.809,6.963-5.162,14.096-7.966,21.062
		c-3.207,7.968-7.243,7.244-11.562,0.411c1.215-9.086,2.431-18.17,3.646-27.255c9.796-10.984,12.889-25.05,17.681-37.896
		c7.353-19.707,22.107-26.479,42.685-27.437c26.773-1.243,53.213,1.476,79.447,6.961c-0.969,17.454,1.515,34.29,8.035,51.137
		C217.196,384.844,235.045,403.488,253.031,422.28z"/>
	<path fill-rule="evenodd" clip-rule="evenodd" fill="#E5675E" d="M587.83,287.873c19.703,48.525,0.83,87.053-32.854,121.725
		c-3.512,3.619-7.164,7.119-10.752,10.678c-34.594,25.661-73.367,43.279-118.092,49.322c-64.643,8.732-121.516-8.735-171.752-48.513
		c-3.812-3.018-7.83-5.812-11.75-8.711c-16.667-19.973-33.208-39.786-40.936-64.656c-5.361-17.251-6.695-34.217-4.543-51.564
		c2.533-4.688,5.092-9.373,4.972-14.896c12.08-16.104,28.061-27.974,47.02-36.617c23.186-5.438,46.012-12.882,69.652-15.799
		c27.739-3.42,56.16-3.299,84.333-3.991c25.582-0.628,51.193,0.659,76.664,4.626c2.08,0.339,4.16,0.678,6.24,1.016
		c19.809,4.322,39.617,8.651,58.1,17.194C561.76,258.236,578.9,269.243,587.83,287.873z"/>
	<path fill-rule="evenodd" clip-rule="evenodd" fill="#E5675E" d="M242.134,254.494c-18.328,9.91-33.466,22.838-44.424,39.726
		c-15.149-9.891-33.21-21.493-34.023-37.716c-1.16-23.064-25.416-38.373-21.082-61.921c0.399-2.171-3.935-5.312-6.304-7.818
		c-36.545-38.648-29.325-79.569,0.255-116.23c4.61-5.712,8.217-2.814,12.389-0.201c21.778,13.631,32.891,33.334,38.412,56.187
		c0.59,2.436,0.895,4.928,1.514,7.358c0.188,0.734,0.996,1.344,1.951,2.563c6.417-6.966,12.72-13.811,20.314-22.054
		c8.196,18.871,5.501,35.147-3.558,50.885c-5.342,9.281-13.013,16.833-22.427,22.632c-5.352,3.295-7.84,6.261-3.017,11.805
		c1.944,2.233,3.816,5.197,4.029,7.908c1.504,19.109,14.063,28.26,32.698,33.828C227.229,243.947,234.413,250.037,242.134,254.494z"
		/>
	<path fill-rule="evenodd" clip-rule="evenodd" fill="#464648" d="M284.62,154.587c7.444,2.271,16.086,5.282,13.534,16.194
		c-2.121,9.065-8.69,13.842-18.494,12.134c-9.556-1.666-15.227-8.127-14.073-17.326C266.749,156.31,273.881,153.096,284.62,154.587z
		"/>
	<path fill-rule="evenodd" clip-rule="evenodd" fill="#454547" d="M481.961,181.143c-5.612-2.418-10.198-5.945-11.3-11.729
		c-1.607-8.437,1.937-14.702,10.831-17.482c8.387-2.622,15.263,0.196,19.52,7.231c4.615,7.627,2.84,14.423-4.619,19.672
		c-3.332,2.346-7.279,2.942-11.403,2.919C483.979,181.552,482.97,181.347,481.961,181.143z"/>
	<path fill-rule="evenodd" clip-rule="evenodd" fill="#E5675E" d="M481.119,181.03c1.01,0.196,2.02,0.394,3.031,0.59
		c-2.214,17.229-4.428,34.456-6.641,51.681c-2.094-0.205-4.191-0.411-6.289-0.616C479.771,216.372,477.466,198.188,481.119,181.03z"
		/>
	<path fill-rule="evenodd" clip-rule="evenodd" fill="#F5F4F4" d="M591.417,275.627c1.178-2.204,2.674-3.598,5.461-1.723
		C596.102,277.13,593.496,275.708,591.417,275.627z"/>
	<path fill-rule="evenodd" clip-rule="evenodd" fill="#F5F4F4" d="M604.26,309.178c-2.013,0.675-4.028,1.365-5.715-0.692
		c1.466-0.429,2.932-0.852,4.398-1.277C603.449,307.828,603.887,308.483,604.26,309.178z"/>
	<path fill-rule="evenodd" clip-rule="evenodd" fill="#E5675E" d="M285.739,182.988c1.025-0.104,2.05-0.207,3.075-0.312
		c3.448,19.682,6.899,39.362,10.348,59.04c-2.06,0.439-4.12,0.877-6.183,1.315C295.853,222.349,287.797,203.047,285.739,182.988z"/>
	<path fill-rule="evenodd" clip-rule="evenodd" fill="#E5675E" d="M538.969,254.494c18.327,9.91,33.465,22.838,44.424,39.726
		c15.148-9.891,33.209-21.493,34.023-37.716c1.16-23.064,25.415-38.373,21.081-61.922c-0.399-2.17,3.935-5.312,6.304-7.817
		c36.545-38.648,29.326-79.569-0.254-116.23c-4.611-5.712-8.218-2.814-12.39-0.201c-21.778,13.631-32.892,33.334-38.411,56.187
		c-0.59,2.436-0.895,4.928-1.515,7.358c-0.188,0.734-0.995,1.344-1.951,2.563c-6.417-6.966-12.72-13.811-20.313-22.054
		c-8.197,18.871-5.502,35.147,3.558,50.885c5.343,9.281,13.013,16.833,22.427,22.632c5.353,3.295,7.841,6.261,3.018,11.805
		c-1.944,2.233-3.816,5.197-4.029,7.907c-1.504,19.109-14.063,28.26-32.698,33.828C553.873,243.947,546.689,250.037,538.969,254.494
		z"/>
	<path fill-rule="evenodd" clip-rule="evenodd" fill="#E5675E" d="M538.97,414.34c5.809,0.521,11.611,1.533,17.43,1.496
		c45.449-0.303,72.72,26.588,70.488,69.16c-0.443,8.49-3.992,17.432,1.663,25.537c7.932-0.592,8.81-6.352,9.951-11.684
		c2.646-12.361,2.159-24.896,3.205-37.338c2.854-33.961-3.571-61.949-51.118-68.51c25.047-6.355,50.055,6.604,61.689,28.336
		c8.014,14.963,8.01,31.174,7.141,47.598c-0.277,5.254-3.264,14.18,4.371,14.889c7.236,0.674,7.643-8.271,8.611-13.742
		c3.463-19.502,1.441-39.102,2.131-58.648c0.617-17.48-7.537-28.047-23.275-35.668c-12.113-5.869-25.555-8.805-41.275-15.225
		c11.715-0.225,19.013-5.252,27.459-3.301c26.682,6.164,45.973,19.586,54.096,44.885c3.354,10.443,4.428,21.17,6.422,31.791
		c0.604,3.213,0.93,7.396,5.662,7.061c4.393-0.312,5.248-4.297,5.408-7.666c0.277-5.814,0.465-11.664,0.107-17.453
		c-1.012-16.291-6.445-31.842-8.807-47.881c-2.582-17.562-13.52-27.186-31.17-31.672c-13.682-3.48-27.773-5.16-46.059-7.021
		c13.416-5.639,22.333-9.721,34.021-8.188c29.883,3.91,48.828,19.188,59.045,44.535c2.811,6.963,5.162,14.096,7.967,21.062
		c3.207,7.969,7.242,7.244,11.562,0.412c-1.215-9.086-2.432-18.17-3.646-27.256c-9.797-10.984-12.889-25.049-17.68-37.896
		c-7.354-19.707-22.107-26.479-42.686-27.436c-26.773-1.244-53.213,1.475-79.447,6.961c0.969,17.453-1.516,34.289-8.035,51.137
		C574.804,376.902,556.954,395.547,538.97,414.34z"/>
	<text transform="matrix(1 0 0 1 222.9917 333.2168)"><tspan x="0" y="0" fill="#FFFFFF" font-family="'Quicksand-Bold'" font-size="60">Dr Dorothy </tspan><tspan x="82.98" y="72" fill="#FFFFFF" font-family="'Quicksand-Bold'" font-size="60">E Bliss</tspan></text>
</g>
</svg>
